<mxfile host="app.diagrams.net" modified="2022-01-06T04:46:44.106Z" agent="5.0 (Macintosh; Intel Mac OS X 10_15_7) AppleWebKit/537.36 (KHTML, like Gecko) Chrome/96.0.4664.110 Safari/537.36" etag="XaEwkmNxWRIHelk9olxf" version="16.2.2" type="github">
  <diagram id="Iwtp84GwSfwNj61CYeOf" name="Page-1">
    <mxGraphModel dx="1298" dy="866" grid="1" gridSize="10" guides="1" tooltips="1" connect="1" arrows="1" fold="1" page="1" pageScale="1" pageWidth="827" pageHeight="1169" math="0" shadow="0">
      <root>
        <mxCell id="0" />
        <mxCell id="1" parent="0" />
        <mxCell id="VpFLaJSFo6p5_hGRRV24-4" style="edgeStyle=orthogonalEdgeStyle;rounded=0;orthogonalLoop=1;jettySize=auto;html=1;entryX=0.442;entryY=0;entryDx=0;entryDy=0;entryPerimeter=0;" edge="1" parent="1" source="VpFLaJSFo6p5_hGRRV24-2" target="VpFLaJSFo6p5_hGRRV24-3">
          <mxGeometry relative="1" as="geometry" />
        </mxCell>
        <mxCell id="VpFLaJSFo6p5_hGRRV24-2" value="" style="ellipse;whiteSpace=wrap;html=1;aspect=fixed;" vertex="1" parent="1">
          <mxGeometry x="379" y="230" width="70" height="70" as="geometry" />
        </mxCell>
        <mxCell id="VpFLaJSFo6p5_hGRRV24-3" value="" style="shape=hexagon;perimeter=hexagonPerimeter2;whiteSpace=wrap;html=1;fixedSize=1;" vertex="1" parent="1">
          <mxGeometry x="360" y="380" width="120" height="80" as="geometry" />
        </mxCell>
      </root>
    </mxGraphModel>
  </diagram>
</mxfile>
